<svg xmlns="http://www.w3.org/2000/svg" width="154" height="21" viewBox="0 0 154 21" fill="none"><g clip-path="url(#clip0_3935_868)"><path d="M147.012 4.9875C145.612 4.33125 144.012 4.26562 142.545 4.39687C141.612 4.4625 140.745 4.65937 139.879 5.05312C138.545 5.70937 137.612 6.75937 136.945 8.1375C136.545 8.79375 136.279 9.58125 136.145 10.4344C136.079 10.8281 136.012 11.2219 135.945 11.6812H139.612C139.679 11.3531 139.679 11.0906 139.745 10.8281C139.945 9.84375 140.212 8.59688 140.879 7.80937C141.412 7.15312 142.079 6.62813 142.945 6.62813C144.012 6.62813 145.012 7.0875 144.879 8.26875H148.545C148.679 7.80938 148.679 7.35 148.612 6.95625C148.479 6.10313 147.945 5.38125 147.012 4.9875ZM73.7453 2.625C77.1452 2.625 80.0786 4.59375 81.3453 7.41563H84.2786C82.8786 3.15 78.6786 0 73.7453 0C68.8119 0 64.6119 3.15 63.2119 7.41563H66.1452C67.4119 4.59375 70.3453 2.625 73.7453 2.625ZM69.8119 8.79375H59.4786V12.2063H69.7453V8.79375H69.8119ZM77.6786 12.2063H88.0119V8.79375H77.7453V12.2063H77.6786ZM73.7453 18.375C70.3453 18.375 67.4119 16.4062 66.1452 13.5844H63.2119C64.6119 17.85 68.8119 21 73.7453 21C78.6786 21 82.8786 17.85 84.2786 13.5844H81.3453C80.0786 16.4062 77.1452 18.375 73.7453 18.375ZM153.412 3.4125C153.012 3.08437 152.545 2.82188 151.945 2.82188C151.345 2.82188 150.879 3.01875 150.479 3.4125C150.079 3.74062 149.879 4.26562 149.879 4.79063C149.879 5.31563 150.079 5.84062 150.479 6.16875C150.879 6.49687 151.345 6.75938 151.945 6.75938C152.545 6.75938 153.012 6.5625 153.412 6.16875C153.812 5.84062 154.012 5.31563 154.012 4.79063C154.012 4.26562 153.812 3.80625 153.412 3.4125ZM153.079 5.90625C152.812 6.16875 152.345 6.36562 151.879 6.36562C151.412 6.36562 151.012 6.16875 150.679 5.90625C150.412 5.64375 150.212 5.25 150.212 4.79063C150.212 4.33125 150.412 3.9375 150.679 3.675C150.945 3.4125 151.412 3.21563 151.879 3.21563C152.345 3.21563 152.745 3.4125 153.079 3.675C153.345 3.9375 153.545 4.33125 153.545 4.79063C153.612 5.25 153.412 5.64375 153.079 5.90625ZM152.679 5.57812C152.679 5.5125 152.679 5.44688 152.679 5.31563C152.679 5.25 152.679 5.18438 152.679 5.11875C152.679 5.05312 152.612 4.9875 152.612 4.9875C152.612 4.92188 152.545 4.92188 152.545 4.92188H152.479C152.479 4.92188 152.479 4.92188 152.545 4.92188C152.545 4.92188 152.612 4.92188 152.612 4.85625L152.679 4.79063C152.679 4.725 152.745 4.725 152.745 4.65937C152.745 4.59375 152.745 4.52813 152.745 4.4625C152.745 4.33125 152.745 4.26562 152.679 4.13438C152.612 4.06875 152.545 4.00313 152.479 3.9375C152.412 3.87188 152.279 3.87188 152.145 3.87188H151.279V5.90625H151.612V4.9875H152.079C152.145 4.9875 152.212 4.9875 152.279 5.05312C152.345 5.05312 152.345 5.11875 152.412 5.18438C152.412 5.25 152.479 5.31562 152.479 5.38125C152.479 5.44688 152.479 5.5125 152.479 5.64375C152.479 5.70938 152.479 5.70937 152.479 5.775C152.479 5.84063 152.479 5.84062 152.479 5.90625C152.479 5.97188 152.479 5.97187 152.545 6.0375H152.879C152.879 6.0375 152.812 5.97188 152.812 5.90625C152.679 5.70937 152.679 5.64375 152.679 5.57812ZM152.279 4.65937C152.212 4.725 152.145 4.725 152.012 4.725H151.479V4.06875H152.012C152.079 4.06875 152.079 4.06875 152.145 4.06875C152.212 4.06875 152.212 4.06875 152.279 4.13438C152.279 4.13438 152.345 4.2 152.345 4.26562C152.345 4.33125 152.345 4.39687 152.345 4.4625C152.345 4.4625 152.345 4.59375 152.279 4.65937ZM8.87858 4.39687C7.81192 4.26562 6.61192 4.26562 5.54525 4.4625C4.34525 4.65938 3.07858 5.18438 2.27858 6.10313C1.81192 6.62813 1.47858 7.21875 1.34525 7.94063C1.21192 8.79375 1.14525 9.64687 1.81192 10.3031C2.21192 10.6969 2.74525 10.9594 3.34525 11.1562C3.94525 11.4187 4.74525 11.55 5.47858 11.7469H11.0119C11.0119 11.4844 10.9452 11.2219 10.8119 11.025C10.4119 10.2375 9.61192 9.90938 8.87858 9.58125C7.94525 9.1875 5.61192 9.12187 5.14525 8.26875C4.94525 7.94063 5.14525 7.54688 5.34525 7.28438C5.41192 7.21875 5.47858 7.0875 5.61192 7.02187C6.21192 6.5625 7.21192 6.49688 7.87858 6.95625C8.27858 7.28438 8.21192 7.54688 8.21192 8.00625H11.6786C11.7452 7.67812 11.8119 7.41563 11.8119 7.0875C11.8119 6.62813 11.8119 6.10313 11.5452 5.70937C10.9452 4.9875 9.81192 4.52812 8.87858 4.39687ZM7.01192 12.3375C7.47858 12.7312 7.27858 13.3875 6.87858 13.7156C6.14525 14.3719 4.67858 14.5688 3.87858 13.9125C3.54525 13.65 3.54525 13.3875 3.54525 12.9281V12.5344H0.0785818C0.0785818 12.8625 0.0785818 13.1906 0.0119151 13.5188C-0.0547515 14.4375 0.145248 15.0938 0.945248 15.6844C2.07858 16.5375 3.87858 16.6031 5.34525 16.4719C7.07858 16.3406 8.94525 15.8156 10.0786 14.5031C10.5452 13.9125 10.9452 12.9937 11.0119 12.075H6.81192C6.87858 12.2063 6.94525 12.2719 7.01192 12.3375ZM24.3452 4.59375H13.1452L12.6786 6.95625H16.3452L15.3452 11.7469H18.8786L19.8786 6.95625H23.8119L24.3452 4.59375ZM14.3452 16.4062H17.8786L18.7452 12.2063H15.2119L14.3452 16.4062ZM29.8786 13.8469C29.8119 14.5688 29.7453 15.4875 29.6119 16.3406H33.4119C33.2119 15.4875 33.4119 14.5687 33.4786 13.65C33.5452 13.0594 33.6119 12.6 33.6786 12.1406H29.6786C30.0786 12.5344 29.8786 13.5188 29.8786 13.8469ZM22.9452 16.4062H26.4786L27.4119 12.2063H23.8786L22.9452 16.4062ZM33.6786 11.7469C33.5452 11.0906 33.0786 10.6969 31.7452 10.5656C33.4786 10.3031 34.4786 9.51562 34.8786 8.85938C35.1452 8.53125 35.2786 8.1375 35.4119 7.67812C35.9452 5.31562 33.6119 4.59375 31.4786 4.59375H25.4786L23.9452 11.7469H33.6786ZM28.4786 6.95625H30.4786C31.2119 6.95625 31.7452 7.54688 31.5452 8.26875C31.4119 8.99063 30.6119 9.58125 29.8786 9.58125H27.8786L28.4786 6.95625ZM60.2786 4.59375H49.1452L48.6119 6.95625H52.2786L51.2786 11.7469H54.8119L55.8119 6.95625H59.7453L60.2786 4.59375ZM50.2786 16.4062H53.8119L54.6786 12.2063H51.1452L50.2786 16.4062ZM36.9453 12.2063L34.2786 16.4062H37.8119L39.1452 14.1094H44.0786L44.3453 16.4062H48.2119L47.4119 12.2063H36.9453ZM43.2119 7.0875L43.8119 11.7469H47.4119L46.0786 4.59375H41.8119L37.2786 11.7469H40.5452L43.2119 7.0875ZM143.345 13.65C142.679 14.2406 141.212 14.6344 140.345 14.1094C139.745 13.7156 139.545 12.9938 139.612 12.2719H135.945C135.945 12.9281 135.945 13.5844 136.145 14.1094C136.345 14.6344 136.612 15.0938 136.945 15.4219C137.879 16.4062 139.412 16.7344 141.012 16.7344C142.612 16.7344 144.279 16.3406 145.545 15.5531C146.612 14.8969 147.345 13.9125 147.612 12.7312H143.945C143.812 13.0594 143.612 13.3875 143.345 13.65ZM89.3452 16.4719H92.4119L93.3452 12.2063H90.2786L89.3452 16.4719ZM97.4119 4.65937H91.8786L90.3452 11.7469H93.4119L94.5452 6.69375L94.8119 11.7469H97.6119L97.4119 4.65937ZM95.1452 16.4719H98.2119L100.412 12.2063H94.8786L95.1452 16.4719ZM102.079 11.7469H105.212L106.812 4.65937H101.345L98.0119 11.7469H100.679L103.212 6.95625L102.079 11.7469ZM101.079 16.4719H104.212L105.145 12.2063H102.012L101.079 16.4719ZM107.745 12.2063L105.079 16.4062H108.612L109.945 14.1094H114.879L115.145 16.4062H119.012L118.212 12.2063H107.745ZM114.012 7.0875L114.612 11.7469H118.212L116.879 4.59375H112.612L108.079 11.7469H111.345L114.012 7.0875ZM130.745 4.59375H119.612L119.079 6.95625H122.745L121.745 11.7469H125.279L126.279 6.95625H130.212L130.745 4.59375ZM120.745 16.4062H124.279L125.145 12.2063H121.612L120.745 16.4062ZM130.479 11.7469H134.012L135.545 4.59375H132.012L130.479 11.7469ZM129.479 16.4062H133.012L133.945 12.2063H130.412L129.479 16.4062Z" fill="#2C2C2D"></path></g><defs><clipPath id="clip0_3935_868"><rect width="154" height="21" fill="white"></rect></clipPath></defs></svg>